<?xml version="1.0" encoding="UTF-8"?>
<svg id="Layer_2" data-name="Layer 2" xmlns="http://www.w3.org/2000/svg" viewBox="0 0 632.33 1186.51">
  <defs>
    <style>
      .cls-1 {
        fill: #fff;
      }
    </style>
  </defs>
  <g id="Layer_1-2" data-name="Layer 1">
    <g>
      <path class="cls-1" d="M0,1186.15V0h632.33v1186.51H0v-.35ZM210.28,923.39c5.67,1.76,9.45,3.78,13.92,7.05,7.63,5.58,15.41,10.53,22.38,17.14,3.7,3.51,8.86,5.44,13.66,7.33l8.77,3.44,6.33,2.68c3.93,1.66,7.87,2.57,12.19,3.44,13.92,2.8,24.38,2.34,38.26-.05,11.45-1.98,14.68-4.42,25.61-9.17,6.74-2.92,13.93-5.38,21.29-6.47l8.06-1.2c2.36-.35,5.83-.94,8.17-.8,16.42.96,16.94,2.04,31.04,6.74,2.06.69,3.93,1.56,5.86,2.45l7.32,3.37c4.01,1.84,7.47,3.62,10.71,6.91,3.95,4.01,7.77,9.08,13.08,11.32l6.63,2.8c1.61.68,4.99,1.27,6.95,1.27l24.76.02c2.07,0,5.07-.78,7.07-1.34l12.22-3.43c2.64-.74,5.73-1.79,8.34-2.77l8.15-3.06c5.26-1.98,10.1-4.44,14.21-8.28,6.91-6.46,10.3-9.25,15.8-17.38l3.6-5.31c9.13-6.91,8.25-16.25,5.46-26.23l-2.67-9.54-2.39-8.16-3.27-11.53-3.06-11.1-3-11.04c-.96-3.55-1.91-7.31-3.15-10.84l-2.91-8.26c-2.29-6.51-4.45-9.85-5.81-14.56l-3.37-11.62-2.95-11.75-3.43-13.56-2.78-9.76-1.51-6.7c-.64-2.85-1.33-5.57-2.13-8.39l-3.24-11.48c-.96-3.39-1.11-7.17-2.4-10.43-1.51-3.79-2.02-7.62-2.41-11.85-1.97-5.07-4.45-11.66-1.69-16.83l2.63-4.92c2.09-3.92,4.21-8.13,6.71-11.64,4.02-5.65,5.85-10.98,6.19-17.95l.45-9.15c.7-14.18-2.19-27.2-6.5-40.64l-2.89-8.99-3.07-9.59-2.95-9.04-2.39-7.77-3.21-11.51c-1.45-5.19-3.45-10.15-5.39-15.12l-2.55-6.54-3.31-8.83c-1.67-4.45-4.52-6.98-6.49-12.27l-2.49-6.68-5.58-13.36c-1.74-4.16-2.48-8.25-3.69-12.6l-3.39-12.12-2.42-8.23c-3.55-12.1-12.17-15.14-13.43-22.98l-1.93-12-3.25-13.23-2.9-11.15c-.85-3.28-2.54-6.52-2.86-10.13-.13-1.52,2.67-3.99,3.55-5.44,1.27-2.09-1.86-5.56-.63-7.69.33-.58,1.79-1.32,2.48-1.37,10.79-.76,4.31,1.69,15.85-3.21,8.98-3.81,16.7-11.93,20.01-21.15,3.08-8.57,3.88-22.94,1.03-32.06-1.84-5.89-7.01-11.68-12.94-14.12-2.5-1.03-6.11-2.55-8.73-2.97-6.41-1.02-13.59-1.11-19.84.02-3.7.67-7.36,2.02-11.05,2.94-1.71.43-4,2.19-6,2.09-1.86-3.11-3.43-6.32-4.73-9.5l-2.89-7.07c-1.1-2.7-2.04-5.4-3.03-8.28l-3.24-9.42-2.9-8.49c-3.15-9.23-3.63-7.3-6.26-18.3-.66-2.77-3.41-5.83-4.37-8.61l-2.5-7.26c-1.27-3.69-2.03-7.15-3.55-10.76-3.03-7.18-9.08-11.99-15.66-15.95l-7.63-4.59c-1.29-.78-1.99-2.38-1.79-4.13.14-1.16,2.32-1.68,3.94-1.89,3.4-.44,6.35-1.34,9.62-2.12,4.8-1.15,10.49,0,15.13-2.04,22.4-9.82,17.54-2.51,37.37-6.83,3.99-.87,8.02-1.67,11.96-2.75,6.58-1.8,11.12-6.08,16.74-9.33,8.42-4.87,15.38-10.02,19.23-20.01l.08-26.82c-3.51-7.45-6.02-7.04-10.93-13.75-5.85-7.98-14.15-18.01-22.72-22.61l-5.93-3.18c-3.14-1.69-6.15-2.66-9.73-3.08-4.32-.51-8.64-1.48-13.04-1.63-12.73-.42-25.35-1.3-37.99.01l-16.43,1.71c-5.75.6-10.45.36-15.84,2.81-2.37,1.08-6.76,1.7-9.39,1.44l-7.99-.8c-5.19-.52-10.14-.3-15.38.08s-9.79-.28-14.27,2.13c-2.84,1.53-6.88,1.03-9.78,2.11-10.14,3.76-8.1,1.81-18.82,5.78l-12.23,4.53-8.4,2.84-9.39,3.41c-1.9.69-5.12.73-6.93,1.6-3.45,1.66-6.94,1.95-10.48,3.11l-10.41,3.42c-7.8,2.57-15.27,5.24-22.65,8.42l-6.84,2.94-7.86,2.92c-2.23.83-4.91,2.46-7.25,3.58-4.5,2.15-8.39,4.62-12.69,7.11l-4.92,2.84c-6.23,3.6-11.9,7.41-17.48,12.02l-8.8,7.29c-2.58,2.14-4.68,4.19-6.69,6.8s-5.16,4.94-7.05,7.72c-4.44,6.51-8.75,12.57-14.55,17.79-2.07,1.87-1.39,4.49.47,6.21,2.01,1.85,1.13,5.51,2.02,7.8l3.31,8.55c2.9,7.49,9.14,10.89,16.54,11.94.61.09,5.65,2.84,12.94,2.84h23.21s4.14-.58,4.14-.58c6.47-.89,12.75,0,18.98-1.47,11.31-2.65,10.9-1.17,23.15-3.57,5.45-1.07,11.95-1.45,17.66-2.03.9-.09,2.91,1.27,3.16,2.07.51,1.67-3.75,6.35-5.91,9.9l-20.24,33.25c-4.47,7.35-8.6,14.33-13.23,21.62l-7.78,12.23c-2.67,4.19-5.01,8.43-7.4,12.87-1.28,2.38-2.12,5.61-5.68,5.63-2.65.02-5.49-1.53-8.17-2.55-2.85-1.08-6.7-.98-9.58-1.85-3.24-.98-6.08-1.75-9.49-1.79-12.52-.15-21.32,2.81-27.84,13.88-2.39,4.06-5.23,8.6-5.22,13.62v23.16c3.64,8.85,11.32,13.42,20.08,16.01,2.59.77,5.23,2.27,8.08,2.41,3.98.2,7.85,2.25,9.73,5.53l-3.02,9.73c-2.84,9.14-1.97,16.48-2.88,18.11l-5.06,8.93c-2.05,3.61-3.08,7.32-6.27,10.13-5.01,4.42-1.05,3.97-4.73,12.04l-3.71,8.15c-.78,1.7-1.35,3.93-2.26,5.49l-6.7,11.55c-.97,1.68-2.15,3.68-2.97,5.43l-2.67,5.71c-3.05,6.54-4.11,7.74-6.59,13.29l-3,6.71c-5.59,12.51-1.26,12.99-3.2,17.46l-4.04,9.31c-2.79,6.42-2.94,5.52-5.9,12.51l-3.33,7.87c-1.18,2.8-1.68,5.51-2.77,8.52l-1.8,4.95-2.79,9.29-2.25,7.37-3.63,11.81-2.88,9.32-1.93,7.34-3.2,11.13c-1.1,3.81-2.67,7.2-2.3,11.58.15,1.74-1.29,4.54-1.33,6.28-.28,12.58-.34,24.62.02,37.26.07,2.5,1.29,5.6,1.57,8.27.25,2.36,1.81,5.08,2.27,7.34,1.25,6.14,3.7,11.28,8.51,15.53l13.31,11.78c3.71,3.28,3.71,7.15,1.57,11.21-1.27,2.41-1.57,6.06-2.46,8.73l-2.66,7.96-1.86,5.04-2.32,6.85c-.95,2.8-2.12,6.12-2.77,8.88l-3.55,14.91c-1.19,5-1.85,10.05-2.7,15.1l-2.13,12.62c-.82,4.84-1.97,9.21-2.91,14.12l-2.46,12.86c-.26,1.38.04,4.17-.3,5.48-1.33,5.24-1.99,9.92-2.29,15.23-.22,3.88-1.48,7.31-2.13,11.06l-1.8,10.3c-.43,2.48-1.42,4.55-1.66,7.04-.69,7.12-2.19,14.45-.41,21.42.85,3.33,5.92,5.24,8.73,6.43,7.47,3.15,17.88,1.29,25.86-.01,4.62-.76,9.82-.52,14.22-2.11l7.44-2.69,9.3-5,13.65-5.42c3.18-1.26,6.36-2.39,9.53-4.01,3.45-1.76,6.67-2.68,10.33-3.93,11.7-4,9.34-6.01,22.59-6.17,9.26-.11,13.85,3.01,24.06,6.17l10.38,3.21ZM331.28,1081.15l10.62.51,12.04,1.22c10.91,1.11,21.81.48,32.81-.11,5.27-.28,10.18-1.53,15.6-1.21,3.99.23,7.86-.18,11.86-.51,11.14-.92,7.6,2.34,18.5-6.18l15.95-.46,9.2-.69c5.34-.4,12.93-3.93,19.22-5.3,1.81-.39,3.6-1.25,4.03-2.83.35-1.27-.46-3.98-1.6-4.75-3.44-2.32-6.11-4.43-8.99-7.13-6.78-6.34-11.89.47-14.29-6.36-.66-1.88-1.76-4.71-2.93-5.85-7.82-7.65-11.74,3.62-16.25-.82-5.32-5.24-11.58-.49-21.53-4.78h-200.74c-3.56,1.61-6.53,1.35-10.14,1.67-10.19.92-19.91,1.22-30.24,1.28-8.04.05-15.85,2.53-23.6,4.25-3.13.69-14.9,3.22-16.95,5.74-2.89,3.55-3.32,9.61-.23,12.97,2.43,2.64,5.74,4.18,9.04,5.15l12.61,3.71c2.71.8,6.61.47,9.63.64,3.32.19,6.56,2.12,9.57,2.19l29.2.75,21.89.5c9.4,5.06,10.82,3.24,20.61,2.85,6.82-.27,13.49-.28,20.25.04l7.9.38c3.49.17,6.57.69,10.03,1.16,4.86.65,10.04.39,14.98.67l13.94.79,18,.51Z"/>
      <path class="cls-1" d="M210.28,923.39l-10.38-3.21c-10.21-3.16-14.8-6.28-24.06-6.17-13.25.16-10.89,2.17-22.59,6.17-3.66,1.25-6.88,2.17-10.33,3.93-3.17,1.62-6.35,2.74-9.53,4.01l-13.65,5.42-9.3,5-7.44,2.69c-4.39,1.59-9.6,1.35-14.22,2.11-7.98,1.3-18.39,3.17-25.86.01-2.81-1.19-7.88-3.1-8.73-6.43-1.78-6.97-.28-14.3.41-21.42.24-2.5,1.22-4.56,1.66-7.04l1.8-10.3c.66-3.75,1.91-7.18,2.13-11.06.3-5.31.96-9.99,2.29-15.23.33-1.31.03-4.1.3-5.48l2.46-12.86c.94-4.9,2.09-9.27,2.91-14.12l2.13-12.62c.85-5.05,1.51-10.1,2.7-15.1l3.55-14.91c.66-2.76,1.83-6.08,2.77-8.88l2.32-6.85,1.86-5.04,2.66-7.96c.89-2.67,1.19-6.31,2.46-8.73,2.14-4.06,2.14-7.93-1.57-11.21l-13.31-11.78c-4.81-4.26-7.26-9.39-8.51-15.53-.46-2.26-2.03-4.98-2.27-7.34-.28-2.67-1.5-5.77-1.57-8.27-.36-12.65-.3-24.69-.02-37.26.04-1.74,1.48-4.53,1.33-6.28-.37-4.38,1.2-7.77,2.3-11.58l3.2-11.13,1.93-7.34,2.88-9.32,3.63-11.81,2.25-7.37,2.79-9.29,1.8-4.95c1.1-3.01,1.59-5.72,2.77-8.52l3.33-7.87c2.95-6.99,3.11-6.09,5.9-12.51l4.04-9.31c1.94-4.47-2.39-4.94,3.2-17.46l3-6.71c2.48-5.55,3.54-6.75,6.59-13.29l2.67-5.71c.82-1.75,1.99-3.75,2.97-5.43l6.7-11.55c.91-1.56,1.48-3.79,2.26-5.49l3.71-8.15c3.68-8.06-.28-7.62,4.73-12.04,3.18-2.81,4.22-6.52,6.27-10.13l5.06-8.93c.92-1.62.05-8.96,2.88-18.11l3.02-9.73c-1.87-3.28-5.74-5.33-9.73-5.53-2.85-.14-5.5-1.64-8.08-2.41-8.76-2.59-16.44-7.16-20.07-16.01v-23.16c-.02-5.03,2.82-9.56,5.21-13.62,6.53-11.07,15.32-14.04,27.84-13.88,3.42.04,6.26.8,9.49,1.79,2.87.87,6.73.77,9.58,1.85,2.68,1.02,5.52,2.57,8.17,2.55,3.56-.02,4.4-3.25,5.68-5.63,2.39-4.44,4.73-8.67,7.4-12.87l7.78-12.23c4.63-7.28,8.76-14.27,13.23-21.62l20.24-33.25c2.16-3.55,6.42-8.23,5.91-9.9-.24-.79-2.26-2.16-3.16-2.07-5.71.58-12.21.96-17.66,2.03-12.24,2.4-11.84.92-23.15,3.57-6.23,1.46-12.51.58-18.98,1.47l-4.14.57h-23.21c-7.29.02-12.33-2.74-12.94-2.83-7.4-1.06-13.64-4.45-16.54-11.94l-3.31-8.55c-.89-2.29,0-5.95-2.02-7.8-1.86-1.71-2.54-4.34-.47-6.21,5.8-5.23,10.11-11.29,14.55-17.79,1.89-2.77,4.99-5.04,7.05-7.72s4.11-4.66,6.69-6.8l8.8-7.29c5.57-4.62,11.25-8.43,17.48-12.02l4.92-2.84c4.31-2.49,8.19-4.96,12.69-7.11,2.34-1.12,5.01-2.75,7.25-3.58l7.86-2.92,6.84-2.94c7.38-3.17,14.84-5.85,22.65-8.42l10.41-3.42c3.54-1.16,7.03-1.45,10.48-3.11,1.81-.87,5.04-.91,6.93-1.6l9.39-3.41,8.4-2.84,12.23-4.53c10.72-3.97,8.67-2.02,18.82-5.78,2.91-1.08,6.94-.58,9.78-2.11,4.48-2.41,9.27-1.77,14.27-2.13s10.19-.6,15.38-.08l7.99.8c2.63.26,7.02-.36,9.39-1.44,5.39-2.45,10.09-2.21,15.84-2.81l16.43-1.71c12.64-1.32,25.26-.43,37.99-.01,4.4.15,8.72,1.12,13.04,1.63,3.58.42,6.59,1.4,9.73,3.08l5.93,3.18c8.57,4.6,16.87,14.63,22.72,22.61,4.92,6.71,7.42,6.3,10.93,13.75l-.08,26.82c-3.85,9.99-10.81,15.15-19.23,20.01-5.62,3.25-10.16,7.52-16.74,9.33-3.94,1.08-7.97,1.88-11.96,2.75-19.82,4.33-14.97-2.99-37.37,6.83-4.64,2.04-10.33.88-15.13,2.04-3.27.78-6.22,1.68-9.62,2.12-1.63.21-3.81.73-3.94,1.89-.2,1.75.49,3.36,1.79,4.13l7.63,4.59c6.58,3.96,12.63,8.77,15.66,15.95,1.52,3.61,2.28,7.07,3.55,10.76l2.5,7.26c.96,2.78,3.71,5.84,4.37,8.61,2.63,11,3.11,9.07,6.26,18.3l2.9,8.49,3.24,9.42c.99,2.88,1.93,5.59,3.03,8.28l2.89,7.07c1.3,3.18,2.87,6.38,4.73,9.5,2,.1,4.28-1.66,6-2.09,3.7-.92,7.35-2.27,11.05-2.94,6.25-1.13,13.43-1.04,19.84-.02,2.62.42,6.23,1.94,8.73,2.97,5.93,2.45,11.09,8.23,12.94,14.12,2.85,9.12,2.05,23.49-1.03,32.06-3.31,9.21-11.03,17.33-20.01,21.15-11.54,4.9-5.06,2.44-15.85,3.21-.69.05-2.15.79-2.48,1.37-1.23,2.14,1.9,5.61.63,7.69-.88,1.46-3.69,3.92-3.55,5.44.32,3.62,2.01,6.85,2.86,10.13l2.9,11.15,3.25,13.23,1.93,12c1.26,7.84,9.87,10.88,13.43,22.98l2.42,8.23,3.39,12.12c1.22,4.35,1.95,8.43,3.69,12.6l5.58,13.36,2.49,6.68c1.97,5.29,4.81,7.82,6.49,12.27l3.31,8.83,2.55,6.54c1.94,4.98,3.94,9.93,5.39,15.12l3.21,11.51,2.39,7.77,2.95,9.04,3.07,9.59,2.89,8.99c4.31,13.45,7.2,26.46,6.5,40.64l-.45,9.15c-.34,6.97-2.18,12.3-6.19,17.95-2.5,3.52-4.61,7.73-6.71,11.64l-2.63,4.92c-2.76,5.17-.28,11.76,1.69,16.83.38,4.23.9,8.06,2.41,11.85,1.29,3.25,1.45,7.04,2.4,10.43l3.24,11.48c.8,2.82,1.49,5.54,2.13,8.39l1.51,6.7,2.78,9.76,3.43,13.56,2.95,11.75,3.37,11.62c1.37,4.71,3.52,8.05,5.81,14.56l2.91,8.26c1.25,3.54,2.19,7.3,3.15,10.84l3,11.04,3.06,11.1,3.27,11.53,2.39,8.16,2.67,9.54c2.79,9.98,3.67,19.32-5.46,26.23l-3.6,5.31c-5.51,8.12-8.89,10.91-15.8,17.38-4.11,3.84-8.95,6.3-14.21,8.28l-8.15,3.06c-2.61.98-5.7,2.03-8.34,2.77l-12.22,3.43c-2,.56-5,1.34-7.07,1.34l-24.76-.02c-1.96,0-5.34-.59-6.95-1.27l-6.63-2.8c-5.31-2.24-9.12-7.31-13.08-11.32-3.24-3.29-6.7-5.07-10.71-6.91l-7.32-3.37c-1.93-.89-3.79-1.76-5.86-2.45-14.1-4.7-14.62-5.78-31.04-6.74-2.33-.14-5.81.45-8.17.8l-8.06,1.2c-7.36,1.09-14.55,3.54-21.29,6.47-10.93,4.74-14.16,7.19-25.61,9.17-13.87,2.4-24.34,2.86-38.26.05-4.32-.87-8.25-1.78-12.19-3.44l-6.33-2.68-8.77-3.44c-4.8-1.89-9.95-3.82-13.66-7.33-6.97-6.61-14.74-11.56-22.38-17.14-4.47-3.27-8.25-5.29-13.92-7.05ZM214.81,232.69c6.99-1.73,16.24,1.92,20.79-3.91,6.48-8.32,15.24-7.78,21.12-13.51,1.01-.98,1.06-4.63,1.96-5.71l11.25-13.4c3.02-3.6,3.59-10.56,9.65-11.39l12.26-1.69c4.92-.68,9.07.53,13.06,3.18l13.01,8.64c1.67,1.11,4.14,1.94,5.65,3.5,6.25,6.45,13.51,11.33,22.49,12.71,3.2,2.87,8.61,4.09,12.37,1.75,2.39-1.49,4.53-2.53,7.29-3.32,17.39-4.96,17.64-.72,29.73-3.74,7.31-1.82,11.15-4.47,16.34-6.04,3.42-1.03,6.61-1.66,9.77-3.02l8.31-3.57,5.96-2.6,13.56-6.15,6.65-3.24,5.4-2.93,4.98-2.79c5.07-2.84,7.88-7,9.77-12.37l1.71-4.85c-6.57-6.74-13.32-13.14-21.72-17.16l-7.26-3.48c-14.38-6.89-15.65-8.27-32.9-10.11-4.81,1.55-9.36,2.27-13.85,3.39-19.36,4.84-26.7,2.68-41.11,5.91-2.51.56-4.69,1.13-7.2,1.25l-7.17.34c-4.9.23-9.66,1.1-14.47,1.78l-17.14,2.41c-.97.14-10.95,5.08-14.4,6.25-6.96,2.36-12.24,7.31-19.04,9.65l-9.34,3.22-7.94,3.58c-2.08.94-4.82,2.02-7.02,2.63l-11.74,3.23c-3.9,1.07-8.04,2.05-12.02,2.55s-7.25,1.59-11.06,2.44l-8.71,1.95-10.04,3.43-8.88,3.05c-6.37,2.19-12.63,4.76-18.37,8.28l-8.21,5.03-5.82,3.19-4.95,2.8c-3.96,2.24-7.66,4.21-11.21,7.19-2.1,1.77-4.47,3.94-6.81,5.14-6.23,3.2-10.92,7.62-12.95,14.7,6.6,15.75,25.47,15.62,39.38,10.54,5.89.02,11.26-.32,17.05-1.14l8.48-1.2c11.73-1.67,9.59-2.98,23.37-6.4ZM398.75,937.16l5.54,1.29c3.26.76,7.34.53,10.24,1.54l8.92,3.12c5.24,1.83,9.91,5,14.82,7.56,6.55,3.41,15.08,10.24,20.31,15.5s10.68,6.68,17.67,6.58c2.92-.04,6.67,1.9,9.73,1.25,4.89-1.04,9.7-1.61,14.3-2.85l10.51-2.83,11.87-4.71c6.62-2.63,13.44-4.61,17.99-10.34,1.6-2.02-.92-4.88-.97-6.74l-.45-15.97c-.06-2.22-1.7-5.33-3.98-5.8-6.39-1.32-12.45-1.25-19.05-1.69-1.54-.1-4.42-1.48-6.13-2-7.54-2.27-13.11-6.46-11.73-15.11.56-3.54,1.78-6.74,4.67-9.51,4.88-4.67,11.18-7.85,17.82-10.2,3.75-1.33,7.94-1.8,12.1-2.64,9.07-1.84,16.97,1.88,18.02-.5.21-.48.41-1.8.22-2.35l-2.65-7.66-3.16-11.15-2.89-9.12c-1.03-3.24-2.45-6.77-3.19-9.86-1.02-4.29-1.58-7.94-3.17-11.99-.77-1.97-.87-4.97-1.49-7.06l-3.22-11-2.99-11.05-2.31-8.14c-1.06-3.74-2.13-7.2-2.94-11.03l-1.52-7.19c-1.02-4.84-1.97-9.15-3.4-13.73-1.11-3.55-1.01-7.58-2.47-11.03s-1.59-7.81-2.64-11.64l-1.52-5.56c-.34-1.25-1.35-3.04-2.41-3.33-.86-.24-2.92.16-3.59.8l-6.8,6.47c-4.79,4.55-8.87,8.9-14.27,12.72-7.65,5.4-14.46,12.17-20.99,18.89-2.47,2.54.82,6.53,1.86,8.47l3.06,5.69,3.47,6.51c.74,1.39-.13,4.77-1.18,5.77-.93.89-3.48,2.15-4.67,1.63-3.85-1.67-5.32-4.84-6.99-8.06l-3.87-7.44c-5.53-10.65-7.64-12.46-12.29-24.82l-2.7-7.18c-6.76-17.95-8.05-9.97-16.7-29.9-.85-1.96-2.06-4.1-3.09-6.08-1.38-2.67-2.08-5.36-3.2-8.2l-2.92-7.41-2.86-7.08-4.77-9.23c-.61-1.18-.77-3.78-1.39-4.96-1.19-2.25-2.86-5.43-.94-7.58,2.35-2.63,6.72-1.43,8.76,1.19,2.26,2.91,4.04,6.34,6.11,9.32,2.42,3.49,14.26-6.12,16.86-8.22l8.27-6.66,16.37-13.2c5-4.03,9.68-7.9,14.04-12.81.03-5.4.78-10.65-.26-15.9l-1.98-10-1.65-17.35c-.31-3.22-.83-8.33,4.04-8.58,2.53-.13,5.67,3.7,5.9,6.25.44,4.76,1.37,8.53,2.74,12.98,1.12,3.64-.33,8.75,2.26,11.9,1.86,2.27,5.36,3.98,6.18,7.21,1.14,4.48-.14,9.65-.03,14.13.09,3.41.25,5.75-2.72,7.8l-28.61,19.76-17.76,11.88c-6.11,4.09-8.24,5.81-15.18,8.07-3.57,2.43,4.73,13.43,7.68,20.94l2.74,6.99,3.13,8.01,3.17,8.92,3.33,8.61c2.69,6.96,7.32,12.67,15.59,11.57,2.75-2.64,6.06-5.38,9.48-7.27,11.39-6.27,12.62-10.16,22.3-17.78,3.56-2.8,5.98-5.95,8.82-9.55,3.33-4.23,7.73-7.51,9.92-12.64l2.72-6.37c.56-1.31.5-4.56,1.41-5.63,3.63-4.28,5.65-9.4,5.62-15.03l-.06-9.85c-.04-6.26-.59-11.76-2.16-17.63-1.1-4.12-.12-8.94-3.81-12.07.95-5.72-2.66-9.37-5.14-13.78-2.81-5.01-5.33-10.36-7.38-15.81l-2.92-7.78-3.54-9.79-3.29-9.39-2.92-8.26-3.65-10.33-3.74-10.96-2.57-6.99-3.38-9.58-1.54-5.61-3.08-9.05-3.16-8.61c-3.46-9.42-4.01-15.06-7.47-23.3l-2.53-6.02-2.14-8.38-2.95-7.19c-1.41-3.43-2.09-6.77-3.11-10.32l-2.13-7.4-1.74-6.67c-1.1-4.22-2.04-8.84-4.6-12.37-8.52-11.71-3.37-9.02-5.63-17.63-.38-1.45-.8-3.47-.32-4.6.42-.99,2.63-1.89,3.37-2.71,2.89-3.19,5.11-5.23,9.2-6.53,1.99-.63,4.65-3.75,6.73-3.99,3.83-.45,6.69-1.6,9.98-2.64,7.21-2.28,8.56-1.27,14.35-11.44,4.19-7.36,6.92-19.46,3.38-28.15-1.32-3.24-3.08-7.29-6.61-8.84-2.43-1.06-6-2.79-8.58-3.14-8.51-1.15-19.1-.82-26.69,3.2-3.17,3.17-6.19,7.42-11.21,6.93-3.52-.34-4.89-4.66-5.92-7.34l-3.18-8.3-2.99-7.62-3.03-8.2-3.12-8.75-3.95-10.69-3.34-8.4c-5.1-12.83-7.94-8.45-10.98-18.19l-3.51-11.25c-1.36-4.36-2.97-9.56-6.61-12.29l-16.57-12.42c-3.22-2.42-5.97-5.37-9.65-7.26l-13.41-6.88c-2.16-1.11-5.2-1.94-7.51-2.96l-7.92-3.48c-11.43-5.03-14.21-13.03-23-18.25-4.58-2.72-15.84-10.11-19.9-7.74-5.75,3.36-5.37,7.04-5.37,12.16l-8.25,10.07-8.28,15.67c-2.77,5.24-5.92,9.66-9.67,14.23-9.76,11.89-9.73,14.86-17.92,25.78-2.49,3.32-4.48,7.35-6.58,10.94.61,3.58-.54,6.21-2.3,8.98l-11.98,18.96-6.72,10.75-16.97,26.73-9.12,16.18c-.46.82-2.32,2.2-3.19,2.08s-2.44-.97-3.49-1.28c-3.2-.94-5.96-1.77-8.83-3.24l-6.14-3.15c-3.08-1.58-8.02-.52-11.28-1.89s-6.69-2.73-9.59.51c-7.04-.69-11.38,4.53-14.22,10.24-3.44,6.93-1.46,5.04-3.36,15.59-2.7,15.01,8.74,17.33,17.23,20.83,4.94,2.04,14.68,3.57,19.36,1.59,1.56-.66,5.54,0,5.55,2.03l-3,9.06c-1.15,3.46-2.45,7.01-3.12,10.59-.88,4.67-2.13,8.9-3.47,13.43-1.12,3.79-.7,8.02-2.61,11.69-1.13,2.17-1.43,5.27-2.38,7.6-3.49,8.6-.76,10.93-5.15,13.64-2.84,1.75-2.96,4.05-3.9,6.93-1.39,4.27-3.54,8.46-5.5,12.56l-3.27,6.84c-1.99,4.16-4.8,7.91-6.72,12.17l-8.05,17.87-3.14,6.79-3,6.35c-1.21,2.57-2.17,5.05-3.27,7.81l-3,7.56-3,6.71-8.67,18.29c-1.48,3.12-2.44,5.96-3.44,9.3l-3.39,11.42-2.73,9.13-6.62,19.23-3.23,11.45-1.79,11.09c-.51,3.13-2.55,6.07-2.56,9.46l-.11,44.67c0,2.94,1.91,6,2.45,8.55,3.02,14.06,6.95,9.49,14.26,20.97,5.49,8.63,13.18,12.96,22.1,16.94,9.38,6.74,18.47,17.05,29.45,20.33,7.32,2.19,9.74-9.24,15.51-17.94,3.13-4.72,6.33-9.15,9.94-13.54l7.91-9.6c1.06-1.29,1.85-3.13,1.9-4.93.03-1.25-1.78-2.76-3.29-3.53-7.94-4.09-14.78-10.18-23.04-15.64-2.97-1.96-5.42-3.71-7.67-6.52l-4.66-5.84c-3.38-4.23-11.87-11.9-12.53-14.25-1.47-5.2-6.67-10.28-8.95-15.08-2.46-5.17-4.02-10.8-5.88-16.33s-1.07-12.81-.25-18.72l2.66-19.17c.69-4.98,2.2-9.42,6.51-11.91,1.44-.83,3.43-1.56,4.67-1,3.79,1.7,2.52,11.62,2.06,13.37l-1.75,6.7-1.92,7.17-.61,11.56c-.38,7.16-2.63,8.41,2.9,21.86.98,2.38,3.98,4.78,5.15,7.08l2.39,4.72c2.17,4.29,4.71,7.54,8.4,10.73,4.63,4.01,7.62,9.48,11.89,14.05,9.06,6.96,13.98,9.18,23,17.12,1.71,1.51,3.76,2.59,5.99,2.04,4.72-1.17.86-13.27,12.43-12.06,1.94.2,5.24.5,6.06,2.22,2.23,4.72-.03,9.13-2.06,13.2-1.91,3.83-3.07,8.47-5.65,11.87-3.94,5.18-7.92,9.84-12.08,14.74l-7.78,9.16-4.07,5.08c-2.84,3.55-11.46,15.95-12.9,19.23-1.9,4.33-4.04,7.72-6.68,11.69-1.82,2.73-4.92,6.48-8.72,3.7-2.21-1.62-.96-6.47,1.04-8.35,3.48-3.26-2.36-3.61-7.32-6.01l-6.17-2.98c-5.21-2.51-12.64-9.14-17.12-13.21-2.32-2.11-5.38-4.55-8.64-4.48-4,2.23-3.79,7.35-5.4,12.8l-3.12,10.52-3,9.64-3.1,12.41-2.71,10.63c-.9,3.53-1.76,6.71-2.11,10.42-.52,5.66-4.87,23.16-5.24,25.58l-2.03,13.43c-.41,2.7-1.66,4.92-1.79,7.68l-.48,9.78c-.04.74,1.8,2.28,2.35,1.81,1.36-1.18,3.93-4.01,5.49-4.83l5.25-2.75c1.67-.87,6.01-.91,7.62.03,9.78,5.72,8.83-1.31,18.24,2.84.63,3,1.17,8.07-.2,10.88-2.35,4.83-17.25,17.87-21.04,20.47l-10.78,7.38c-9.72,6.65-11.63,1.39-15.11,6.75-.55.84.09,3.38.95,3.89.74.44,2.6.81,3.58.76,12.62-.68.11,7.92,27.5-1.37l18.41-6.24,8.6-3.23,8.14-3.13,7.09-2.92,7.37-3.02,13.27-5.6c3.84-1.62,8.37-2.17,12.55-3.06,5.76-1.22,15.19.11,20.75,2.16l13.23,4.88,8.3,2.81,8.37,2.93c4.15,1.45,7.49,3.22,10.88,6.39,7.65,7.16,14.64,15.37,23.92,20.71,8.46,4.86,17.63,7.48,26.45,11.85,3.13,1.55,7.22,1.7,10.76,2.51,5.4,1.24,12.59,2.28,17.96,1.35l7.05-1.22c5.35-.93,10.46-1.57,15.31-3.92l6.23-3c6.71-3.24,15.17-7.28,22.38-8.4l19.59-3.05c5.07-.79,11.35-1.13,16.53.08ZM562.15,915.8l-4.02-6.94c-6.21,3.24-6.72,14.84-3.1,16.96,1.38.81,3.91.13,5.14-.67,3.55-2.3,4.09-5.69,1.97-9.35Z"/>
      <path class="cls-1" d="M331.28,1081.15l-18-.51-13.94-.79c-4.94-.28-10.12-.02-14.98-.67-3.46-.47-6.54-.99-10.03-1.16l-7.9-.38c-6.76-.33-13.43-.31-20.25-.04-9.8.38-11.22,2.21-20.61-2.85l-21.89-.5-29.2-.75c-3.01-.08-6.24-2-9.57-2.19-3.03-.18-6.92.15-9.63-.64l-12.61-3.71c-3.29-.97-6.61-2.51-9.04-5.15-3.09-3.37-2.66-9.42.23-12.97,2.05-2.52,13.82-5.05,16.95-5.74,7.76-1.72,15.56-4.2,23.6-4.25,10.33-.06,20.06-.36,30.24-1.28,3.61-.33,6.58-.06,10.14-1.67h200.74c9.95,4.29,16.21-.45,21.53,4.79,4.52,4.44,8.43-6.83,16.25.82,1.17,1.14,2.27,3.97,2.93,5.85,2.39,6.83,7.51.02,14.29,6.36,2.88,2.69,5.55,4.81,8.99,7.13,1.14.77,1.95,3.47,1.6,4.75-.43,1.58-2.22,2.44-4.03,2.83-6.29,1.37-13.88,4.9-19.22,5.3l-9.2.69-15.95.46c-10.91,8.52-7.36,5.26-18.5,6.18-4,.33-7.87.74-11.86.51-5.42-.31-10.33.93-15.6,1.21-11,.59-21.9,1.21-32.81.11l-12.04-1.22-10.62-.51Z"/>
      <path class="cls-1" d="M398.75,937.16c-5.18-1.2-11.46-.87-16.53-.08l-19.59,3.05c-7.21,1.12-15.66,5.16-22.38,8.4l-6.23,3c-4.86,2.34-9.97,2.99-15.31,3.92l-7.05,1.22c-5.37.93-12.57-.11-17.96-1.35-3.54-.81-7.63-.96-10.76-2.51-8.82-4.37-17.99-6.98-26.45-11.85-9.28-5.34-16.27-13.56-23.92-20.71-3.39-3.17-6.73-4.94-10.88-6.39l-8.37-2.93-8.3-2.81-13.23-4.88c-5.56-2.05-14.99-3.38-20.75-2.16-4.19.89-8.72,1.44-12.55,3.06l-13.27,5.6-7.37,3.02-7.09,2.92-8.14,3.13-8.6,3.23-18.41,6.24c-27.39,9.28-14.89.69-27.5,1.37-.98.05-2.85-.32-3.58-.76-.86-.52-1.5-3.05-.95-3.89,3.48-5.36,5.39-.1,15.11-6.75l10.78-7.38c3.79-2.6,18.69-15.64,21.04-20.47,1.37-2.81.83-7.88.2-10.88-9.41-4.15-8.46,2.88-18.24-2.84-1.61-.94-5.95-.91-7.62-.03l-5.25,2.75c-1.56.82-4.14,3.65-5.49,4.83-.54.47-2.38-1.06-2.35-1.81l.48-9.78c.13-2.77,1.38-4.98,1.79-7.68l2.03-13.43c.37-2.42,4.71-19.93,5.24-25.58.34-3.71,1.21-6.89,2.11-10.42l2.71-10.63,3.1-12.41,3-9.64,3.12-10.52c1.62-5.45,1.4-10.57,5.4-12.8,3.26-.07,6.32,2.37,8.64,4.48,4.48,4.07,11.91,10.69,17.12,13.21l6.17,2.98c4.96,2.4,10.8,2.75,7.32,6.01-2,1.88-3.25,6.73-1.04,8.35,3.8,2.78,6.91-.97,8.72-3.7,2.64-3.97,4.78-7.36,6.68-11.69,1.44-3.28,10.05-15.68,12.9-19.23l4.07-5.08,7.78-9.16c4.16-4.9,8.14-9.56,12.08-14.74,2.58-3.4,3.74-8.03,5.65-11.87,2.03-4.07,4.3-8.48,2.06-13.2-.81-1.72-4.12-2.02-6.06-2.22-11.57-1.21-7.71,10.89-12.43,12.06-2.23.55-4.28-.54-5.99-2.04-9.02-7.94-13.94-10.16-23-17.12-4.27-4.57-7.26-10.04-11.89-14.05-3.69-3.19-6.23-6.45-8.4-10.73l-2.39-4.72c-1.16-2.3-4.17-4.69-5.15-7.08-5.54-13.45-3.28-14.69-2.9-21.86l.61-11.56,1.92-7.17,1.75-6.7c.46-1.75,1.72-11.67-2.06-13.37-1.24-.56-3.23.16-4.67,1-4.31,2.49-5.82,6.94-6.51,11.91l-2.66,19.17c-.82,5.9-1.66,13.01.25,18.72s3.41,11.16,5.88,16.33c2.29,4.8,7.48,9.88,8.95,15.08.66,2.35,9.16,10.03,12.53,14.25l4.66,5.84c2.25,2.82,4.7,4.56,7.67,6.52,8.26,5.46,15.11,11.55,23.04,15.64,1.51.78,3.33,2.28,3.29,3.53-.05,1.79-.84,3.63-1.9,4.93l-7.91,9.6c-3.61,4.38-6.81,8.81-9.94,13.54-5.76,8.7-8.19,20.13-15.51,17.94-10.98-3.28-20.07-13.59-29.45-20.33-8.91-3.97-16.6-8.31-22.1-16.94-7.31-11.48-11.24-6.91-14.26-20.97-.55-2.55-2.46-5.61-2.45-8.55l.11-44.67c0-3.39,2.05-6.33,2.56-9.46l1.79-11.09,3.23-11.45,6.62-19.23,2.73-9.13,3.39-11.42c.99-3.34,1.95-6.18,3.44-9.3l8.67-18.29,3-6.71,3-7.56c1.09-2.75,2.05-5.24,3.27-7.81l3-6.35,3.14-6.79,8.05-17.87c1.92-4.26,4.73-8.01,6.72-12.17l3.27-6.84c1.96-4.09,4.11-8.29,5.5-12.56.94-2.88,1.06-5.17,3.9-6.93,4.39-2.72,1.66-5.05,5.15-13.64.95-2.34,1.25-5.43,2.38-7.6,1.91-3.67,1.49-7.9,2.61-11.69,1.34-4.53,2.6-8.75,3.47-13.43.67-3.58,1.97-7.13,3.12-10.59l3-9.06c-.02-2.04-3.99-2.69-5.55-2.03-4.68,1.98-14.42.45-19.36-1.59-8.5-3.5-19.93-5.82-17.23-20.83,1.9-10.55-.08-8.66,3.36-15.59,2.83-5.71,7.18-10.94,14.22-10.24,2.91-3.23,6.24-1.91,9.59-.51s8.2.31,11.28,1.89l6.14,3.15c2.86,1.47,5.62,2.3,8.83,3.24,1.05.31,2.61,1.16,3.49,1.28s2.73-1.26,3.19-2.08l9.12-16.18,16.97-26.73,6.72-10.75,11.98-18.96c1.76-2.78,2.91-5.4,2.3-8.98,2.1-3.6,4.09-7.62,6.58-10.94,8.19-10.92,8.16-13.9,17.92-25.78,3.75-4.57,6.9-9,9.67-14.23l8.28-15.67,8.25-10.07c0-5.12-.38-8.8,5.37-12.16,4.06-2.37,15.32,5.02,19.9,7.74,8.79,5.22,11.57,13.23,23,18.25l7.92,3.48c2.31,1.02,5.35,1.85,7.51,2.96l13.41,6.88c3.69,1.89,6.43,4.84,9.65,7.26l16.57,12.42c3.64,2.73,5.25,7.93,6.61,12.29l3.51,11.25c3.03,9.73,5.88,5.36,10.98,18.19l3.34,8.4,3.95,10.69,3.12,8.75,3.03,8.2,2.99,7.62,3.18,8.3c1.03,2.68,2.4,7,5.92,7.34,5.01.49,8.04-3.75,11.21-6.93,7.58-4.02,18.18-4.35,26.69-3.2,2.57.35,6.15,2.07,8.58,3.14,3.53,1.55,5.29,5.6,6.61,8.84,3.55,8.69.81,20.79-3.38,28.15-5.78,10.17-7.14,9.16-14.35,11.44-3.29,1.04-6.16,2.19-9.98,2.64-2.08.24-4.75,3.35-6.73,3.99-4.09,1.3-6.31,3.34-9.2,6.53-.74.82-2.95,1.72-3.37,2.71-.48,1.13-.06,3.15.32,4.6,2.26,8.61-2.89,5.92,5.63,17.63,2.56,3.52,3.5,8.15,4.6,12.37l1.74,6.67,2.13,7.4c1.02,3.55,1.71,6.89,3.11,10.32l2.95,7.19,2.14,8.38,2.53,6.02c3.46,8.24,4.01,13.88,7.47,23.3l3.16,8.61,3.08,9.05,1.54,5.61,3.38,9.58,2.57,6.99,3.74,10.96,3.65,10.33,2.92,8.26,3.29,9.39,3.54,9.79,2.92,7.78c2.05,5.45,4.57,10.8,7.38,15.81,2.48,4.41,6.09,8.06,5.14,13.78,3.69,3.13,2.71,7.95,3.81,12.07,1.58,5.87,2.12,11.37,2.16,17.63l.06,9.85c.04,5.63-1.99,10.76-5.62,15.03-.91,1.07-.85,4.32-1.41,5.63l-2.72,6.37c-2.2,5.13-6.59,8.41-9.92,12.64-2.84,3.6-5.26,6.76-8.82,9.55-9.68,7.61-10.91,11.51-22.3,17.78-3.42,1.88-6.73,4.63-9.48,7.27-8.27,1.1-12.9-4.61-15.59-11.57l-3.33-8.61-3.17-8.92-3.13-8.01-2.74-6.99c-2.95-7.51-11.25-18.51-7.68-20.94,6.94-2.26,9.07-3.98,15.18-8.07l17.76-11.88,28.61-19.76c2.96-2.05,2.8-4.39,2.72-7.8-.11-4.48,1.17-9.65.03-14.13-.82-3.23-4.33-4.94-6.18-7.21-2.58-3.15-1.13-8.26-2.26-11.9-1.37-4.45-2.31-8.22-2.74-12.98-.23-2.55-3.37-6.37-5.9-6.25-4.88.25-4.35,5.36-4.04,8.58l1.65,17.35,1.98,10c1.04,5.25.3,10.5.26,15.9-4.37,4.91-9.04,8.78-14.04,12.81l-16.37,13.2-8.27,6.66c-2.6,2.1-14.44,11.71-16.86,8.22-2.06-2.98-3.85-6.41-6.11-9.32-2.04-2.62-6.42-3.82-8.76-1.19-1.92,2.15-.25,5.33.94,7.58.62,1.18.78,3.78,1.39,4.96l4.77,9.23,2.86,7.08,2.92,7.41c1.12,2.84,1.82,5.54,3.2,8.2,1.03,1.99,2.24,4.12,3.09,6.08,8.65,19.92,9.95,11.95,16.7,29.9l2.7,7.18c4.65,12.36,6.76,14.17,12.29,24.82l3.87,7.44c1.67,3.22,3.14,6.39,6.99,8.06,1.19.52,3.73-.75,4.67-1.63,1.05-1,1.93-4.38,1.18-5.77l-3.47-6.51-3.06-5.69c-1.05-1.94-4.33-5.93-1.86-8.47,6.53-6.72,13.35-13.49,20.99-18.89,5.41-3.82,9.49-8.17,14.27-12.72l6.8-6.47c.68-.64,2.73-1.04,3.59-.8,1.06.29,2.07,2.08,2.41,3.33l1.52,5.56c1.04,3.82,1.11,8.03,2.64,11.64s1.37,7.49,2.47,11.03c1.43,4.58,2.38,8.89,3.4,13.73l1.52,7.19c.81,3.83,1.88,7.29,2.94,11.03l2.31,8.14,2.99,11.05,3.22,11c.61,2.09.71,5.09,1.49,7.06,1.59,4.05,2.15,7.7,3.17,11.99.73,3.09,2.16,6.62,3.19,9.86l2.89,9.12,3.16,11.15,2.65,7.66c.19.55,0,1.86-.22,2.35-1.06,2.38-8.96-1.34-18.02.5-4.15.84-8.34,1.32-12.1,2.64-6.65,2.35-12.95,5.53-17.82,10.2-2.89,2.77-4.1,5.97-4.67,9.51-1.38,8.65,4.19,12.84,11.73,15.11,1.72.52,4.6,1.89,6.13,2,6.6.44,12.66.37,19.05,1.69,2.28.47,3.91,3.57,3.98,5.8l.45,15.97c.05,1.86,2.58,4.72.97,6.74-4.55,5.72-11.37,7.71-17.99,10.34l-11.87,4.71-10.51,2.83c-4.6,1.24-9.41,1.81-14.3,2.85-3.05.65-6.8-1.29-9.73-1.25-6.99.1-12.64-1.52-17.67-6.58s-13.76-12.1-20.31-15.5c-4.91-2.55-9.59-5.73-14.82-7.56l-8.92-3.12c-2.9-1.01-6.98-.78-10.24-1.54l-5.54-1.29ZM289.99,615.48l.63-6.77c.58-6.26,1.36-12.33,2.69-18.27,1.7-7.63,1.49-17.57,5.98-20.31,1.45,3.38,1.81,6.85,1.7,10.46-.29,9.58,1.97,10.33,2.68,21.16.32,4.96.26,9.94,1.69,14.58,2.29,7.45,1.69,14.8,2.24,22.7.37,5.24,6.14,20.56,12.57,19.56,1.76-.28,3.7-1.77,4.89-3.14,2.66-3.07,2.86-6.18.64-9.66l-.08-7.63c-.07-6.14-7.31-.77-8.39-11.15-.69-6.66-1.89-13.1-2.82-19.69l-2.52-18.03c-.43-3.06-1.45-6.25-1.63-9.38-.61-10.88-2.73-19.53-3.45-31.64l-.63-10.63c-.21-3.64.01-7.57-.49-11.06-.45-3.15-3.53-6.76-.76-9.8,2.3-.85,5.22,2.21,7.28,3.15l16.17,7.41c2.44,1.12,4.8,2.21,7.4,3.14l9.38,3.36,7.61,2.84c3.22,1.2,6.48,2.69,10.16,2.41,5.67-.42,12.03.84,17.3-.48,12.12-3.04,12.93-21.17,8.79-29.78-1.28-2.68-3.1-4.8-5.17-6.91-9.71-9.86-11.88-5.52-20.79-13.2,10.86-5.4,22.12-6.86,33.83-7.79,8.38-.67,6.32-8.43,9.4-10.75,3.24-2.46,3.72-4.01,3.87-7.83.31-7.97-1.16-15.15-3.26-22.66l-3.07-10.97-2.9-10.61c-.84-3.06-1.02-6.65-1.71-9.77l-3.06-13.84c-1.01-4.58-2.68-8.97-2.97-13.77-.13-2.03-.71-4.01-.99-5.93l-1.69-11.69c-.3-2.06-.63-4.02-1.01-5.96l-3.68-18.85c-1.13-5.78-.76-12.03-2.25-17.7l-3.06-11.65c-2.21-8.41-6.06-16.24-11.99-22.36l-6.98-7.22c-2.72-2.81-5.83-4.89-9.05-7.08-9.47-6.46-10.23-8.59-21.32-12.45-8.75-.32-17.76-.91-26.51-.02l-6.98.71c-5.38.55-7.11,4.33-9.24,8.52-1.59,3.13-4.86,5.95-7.34,8.58l-8.24,8.75-6.51,6.84-9.43,10.35-8.63,11.02-10.72,11.9c-3.14,3.49-6.33,6.69-9.19,10.42-5.87,7.63-18.22,23.82-21.5,32.18l-2.92,7.44c-3.76,9.58-6.18,18.75-9.92,27.9l-3.82,9.36c-1.08,2.64-.34,6.12-1.5,8.58-1.63,3.45-2.52,6.56-2.34,10.46.62,12.97-6.61,9.25-.58,16.99-5.05,7.51-5.05,18.95-3.99,27.79,1.16,9.61-3.47,7.47-4.52,11.89-.95,3.99,6.8,6.57,9.02,7.44,5.73,2.24,11.27,3.07,17.35,3.92,3.35.47,5.67.35,8.9-.05l13.35-1.63c3.56-.43,16.12,2.93,34.82-.19.91-.15,2.64.59,2.93,1.25,1.1,2.51-1.66,5.5-4.2,6.97-4.12,2.39-7.46,5.06-10.64,8.46-2.79,2.98-5.91,5.27-9.05,7.93-5.28,4.48-9.66,9.88-14.18,15.17l-15.16,17.73c-4.03,4.72-5.46,16.31-1.33,18.01,5.82,2.39,12.22.99,17.46-1.51l6.17-2.94c21.65-10.34,31.76-20.38,47.53-38.43l7.14-8.18c5.48,4.46,2.59,26.3,1.85,33.85-.43,4.43-.49,8.91-1.91,13.06-1,2.92-1.54,5.64-1.83,8.81-.25,2.68-1.33,5.26-1.75,7.93l-3.65,23.17c-2.71,2.7-5.18,5.23-4.27,9.9.38,1.93-5.75,24.25-1.31,26.2,2.95,1.3,7.78,1.78,10.11.45,3.63-2.08,3.73-5.95,3.91-9.21l.71-12.7.71-9.44Z"/>
      <path class="cls-1" d="M214.81,232.69c-13.78,3.42-11.63,4.73-23.37,6.4l-8.48,1.2c-5.79.82-11.16,1.16-17.05,1.14-13.91,5.08-32.78,5.21-39.38-10.54,2.03-7.08,6.71-11.5,12.95-14.7,2.34-1.2,4.71-3.38,6.81-5.14,3.55-2.99,7.26-4.95,11.21-7.19l4.95-2.8,5.82-3.19,8.21-5.03c5.74-3.51,11.99-6.09,18.37-8.28l8.88-3.05,10.04-3.43,8.71-1.95c3.81-.85,7.05-1.94,11.06-2.44s8.12-1.48,12.02-2.55l11.74-3.23c2.2-.61,4.94-1.69,7.02-2.63l7.94-3.58,9.34-3.22c6.8-2.34,12.08-7.3,19.04-9.65,3.46-1.17,13.43-6.11,14.4-6.25l17.14-2.41c4.81-.68,9.57-1.54,14.47-1.78l7.17-.34c2.51-.12,4.68-.68,7.2-1.25,14.42-3.23,21.75-1.07,41.11-5.91,4.49-1.12,9.05-1.84,13.85-3.39,17.25,1.84,18.52,3.23,32.9,10.11l7.26,3.48c8.4,4.02,15.15,10.43,21.72,17.16l-1.71,4.85c-1.89,5.37-4.7,9.53-9.77,12.37l-4.98,2.79-5.4,2.93-6.65,3.24-13.56,6.15-5.96,2.6-8.31,3.57c-3.16,1.36-6.35,1.99-9.77,3.02-5.2,1.57-9.03,4.21-16.34,6.04-12.09,3.01-12.34-1.23-29.73,3.74-2.76.79-4.9,1.83-7.29,3.32-3.77,2.34-9.17,1.13-12.37-1.75-8.98-1.38-16.24-6.26-22.49-12.71-1.51-1.56-3.98-2.39-5.65-3.5l-13.01-8.64c-3.99-2.65-8.14-3.85-13.06-3.18l-12.26,1.69c-6.06.83-6.63,7.79-9.65,11.39l-11.25,13.4c-.9,1.08-.95,4.73-1.96,5.71-5.88,5.73-14.64,5.19-21.12,13.51-4.54,5.83-13.8,2.17-20.79,3.91Z"/>
      <path class="cls-1" d="M562.15,915.8c2.12,3.65,1.57,7.05-1.97,9.35-1.24.8-3.76,1.48-5.14.67-3.62-2.12-3.12-13.72,3.1-16.96l4.02,6.94Z"/>
      <path class="cls-1" d="M289.99,615.48l-.71,9.44-.71,12.7c-.18,3.26-.28,7.13-3.91,9.21-2.33,1.34-7.16.86-10.11-.45-4.43-1.96,1.69-24.27,1.31-26.2-.92-4.67,1.56-7.2,4.27-9.9l3.65-23.17c.42-2.67,1.5-5.25,1.75-7.93.29-3.17.83-5.89,1.83-8.81,1.42-4.14,1.48-8.63,1.91-13.06.73-7.56,3.62-29.4-1.85-33.85l-7.14,8.18c-15.77,18.05-25.88,28.1-47.53,38.43l-6.17,2.94c-5.24,2.5-11.64,3.91-17.46,1.51-4.14-1.7-2.7-13.3,1.33-18.01l15.16-17.73c4.52-5.28,8.89-10.69,14.18-15.17,3.14-2.66,6.26-4.96,9.05-7.93,3.19-3.4,6.52-6.07,10.64-8.46,2.55-1.47,5.3-4.46,4.2-6.97-.29-.66-2.02-1.4-2.93-1.25-18.7,3.13-31.27-.24-34.82.19l-13.35,1.63c-3.23.39-5.55.52-8.9.05-6.08-.85-11.62-1.68-17.35-3.92-2.21-.87-9.97-3.45-9.02-7.44,1.05-4.42,5.68-2.28,4.52-11.89-1.06-8.84-1.06-20.28,3.99-27.79-6.03-7.75,1.19-4.02.58-16.99-.19-3.9.71-7.01,2.34-10.46,1.16-2.46.42-5.93,1.5-8.58l3.82-9.36c3.74-9.16,6.15-18.32,9.92-27.9l2.92-7.44c3.28-8.36,15.63-24.54,21.5-32.18,2.86-3.72,6.05-6.93,9.19-10.42l10.72-11.9,8.63-11.02,9.43-10.35,6.51-6.84,8.24-8.75c2.48-2.63,5.75-5.46,7.34-8.58,2.13-4.19,3.85-7.97,9.24-8.52l6.98-.71c8.75-.89,17.76-.3,26.51.02,11.1,3.87,11.85,6,21.32,12.45,3.22,2.19,6.33,4.27,9.05,7.08l6.98,7.22c5.93,6.13,9.77,13.95,11.99,22.36l3.06,11.65c1.49,5.68,1.12,11.92,2.25,17.7l3.68,18.85c.38,1.94.71,3.9,1.01,5.96l1.69,11.69c.28,1.91.86,3.89.99,5.93.3,4.8,1.96,9.19,2.97,13.77l3.06,13.84c.69,3.12.87,6.71,1.71,9.77l2.9,10.61,3.07,10.97c2.11,7.51,3.57,14.7,3.26,22.66-.15,3.82-.63,5.37-3.87,7.83-3.07,2.33-1.02,10.08-9.4,10.75-11.72.93-22.98,2.39-33.83,7.79,8.91,7.68,11.07,3.34,20.79,13.2,2.07,2.1,3.89,4.23,5.17,6.91,4.14,8.61,3.33,26.75-8.79,29.78-5.27,1.32-11.64.06-17.3.48-3.68.27-6.94-1.21-10.16-2.41l-7.61-2.84-9.38-3.36c-2.6-.93-4.96-2.02-7.4-3.14l-16.17-7.41c-2.06-.94-4.98-4-7.28-3.15-2.78,3.04.3,6.65.76,9.8.5,3.49.28,7.42.49,11.06l.63,10.63c.71,12.12,2.84,20.77,3.45,31.64.17,3.13,1.2,6.33,1.63,9.38l2.52,18.03c.92,6.58,2.13,13.03,2.82,19.69,1.07,10.38,8.32,5.01,8.39,11.15l.08,7.63c2.22,3.48,2.02,6.59-.64,9.66-1.19,1.37-3.12,2.86-4.89,3.14-6.43,1-12.21-14.32-12.57-19.56-.55-7.9.05-15.25-2.24-22.7-1.43-4.64-1.37-9.62-1.69-14.58-.7-10.83-2.97-11.58-2.68-21.16.11-3.6-.25-7.08-1.7-10.46-4.49,2.73-4.28,12.67-5.98,20.31-1.33,5.94-2.11,12.02-2.69,18.27l-.63,6.77ZM294.39,491.34c10.96.47,7.39-5.88,20.68-6.48l10.57-.47c5.36-.24,10.46.12,15.17-2.73,10.54-.34,17.43-5.46,26.56-8.29,5.04-1.56,10.73-.51,14.68-4.7,1.37-1.45.16-5.03-1.06-6.67-2.97-4.02-2.44-8.86.23-10,3.72-1.59,5.8,5.26,10.86.21,1.12-1.12,4-1.22,1.07-8.81-2.71-7.03-4.51-13.45-6.11-20.75-.44-1.99-1.7-4.45-2.6-6.44-4.4-.25-6.6-2.72-8.96-5.87-2.72-3.63-4.73-8.29-1.72-12.84,2.91-4.4,7.4-1.42,6.31-9.17l-1.93-13.7-2.36-13.89c-.22-1.3-1.49-2.99-2.74-3.13-3.24-.36-8.73,8.42-16.07,12.14-12.93,6.55-42.09,3.57-43.65-10.32-.56-4.94-.47-10.18-.24-15.42.53-11.87,6.45-23.29,16.22-30.08,1.89-1.31,4.82-2.62,6.77-3.39l8.29-3.27c6.27-2.47,15.29,4.62,18.46,3.28,3.46-1.46.05-4.79-.65-6.55-2.09-5.26-5.96-9.17-10.35-12.9-11.47-9.74-18.71-17.75-34.72-18.2-3.93-.11-9.08-1.46-12.57,1.53-3.09,2.64-6.16,5.66-8.81,8.66l-7.4,8.36c-1.1,1.25-2.51,3.54-3.6,4.6-6.02,5.83-11.74,11.29-16.5,18.15,5.23,7.62,8.51,7.6,16.21,13.41,5.98,4.52,10.4,10.84,10.38,18.6-.01,5.41-.37,10.96-4.16,14.92-12.1,12.64-24.32,19.68-42.2,17.17s-21.2-12.42-24.96-11.74c-2.47.45-2.91,3.55-4.87,6.22-2.39,3.25-4.2,6.18-5.84,9.7l-3.2,6.9c-.65,1.4-1.81,2.99-2.17,4.5-1.72,7.19-3.95,5.94-3.17,10.04.65,3.44,6.35,1.2,8.06,3.88,2.43,3.81,2.44,10.31-.89,14.86-2.67,3.66-5.13,8.34-9.33,10.18-3.36,1.48-5.63,2.74-6.17,6.89l-1.6,12.38c-.15,1.2,1.14,4.19.39,4.97l-4.62,4.77c-1.56,13.17,1.89,14.9,2.3,19.03.46,4.64,3.74,5.68,7.01,7.37,21.21,10.95,17.92,3.35,33.35,3.06l24.43-.46c7.39-.14,14.64-.48,22.12-.16l15.11.64ZM368.15,347.34c4.72-3.77,4.43-8.33,3.18-13.7-1.18-5.09-1.36-10.39-5.55-14.28-4.57,1.56-8.98.03-13.05-2.36-2.31-1.36-6.95-1.62-8.77-.16-3.26,2.62,1.48,5.4,1.63,7.28.81,9.72.47,19.26.32,29-.04,2.61-1.81,6.95.66,8.59,3.4,2.25,7.19-.76,9.59-3.17,3.93-3.95,7.81-7.86,11.99-11.2ZM329.34,362.74c2.99,1.03,5.01-1.87,4.77-4.49l-.93-9.87c-.56-5.93-2.47-11.77-1.83-17.45.09-.79-.65-2.56-1.27-2.68-1.58-.3-4.76,3.45-5.25,4.94l-1.99,6.07c-1.74,5.32-1.93,11.63-.83,17.29.54,2.76,5,5.38,7.34,6.19ZM251,355.47c-1.01-1.41-.9-4.25.22-5.59,4.65-5.57-1.07-10.25,5.64-15.27,5.84-4.37-5.56-8.58-18.14,7.08-3.67,4.57-8.13,9.22-10.35,14.61s3.34,9.39,7.06,11.28c5.09,2.59,12.02,6.4,17.61,5.16.87-.19.98-2.76.44-3.54-4.41-6.37,1.68-7.88-2.49-13.73ZM266.23,369.54l1.97-1.25c6.35-4.02,11.97-8.28,16.28-14.75,1.92-2.88,2.69-7.95.76-11.21s-9.23-11.41-12.42-10.67c-.63.15-1.68,1.58-1.73,2.29-.3,4.34-1.48,8.96-2.75,13.25-.82,2.79.02,6.71-1.34,9.36-5.2,10.09-2.35,13.97-.77,12.97ZM377.88,526.29c3.12-6.3.84-11.91-4.15-15.62-2.2-1.64-4.46-3.88-6.8-5.07-5.47-2.78-10.81-4.34-16.56-6.07l-5.21-1.57c-6.95-2.1-14.28-1.06-21.63-1.23-5.23-.12-9.76.83-14.78,2.12-2.03.52-4.7.79-4.8,3.27-.09,2.07,1.84,2.84,3.7,3.73l5.12,2.44,32.9,14.97c4.27,1.94,12.95,3.68,18.08,4.37,4.47.6,9.34-.53,14.13-1.33ZM229.18,560.8l10.16-6.08c5.04-3.02,9.51-6.04,13.88-9.94,5.14-4.59,10.21-9.2,14-14.94,2.57-3.88,5.43-7.14,8.16-10.91l6.78-9.34c.48-.66.61-2.78.13-3.37s-1.94-1.62-2.84-1.9c-4.01-1.22-6.91,2.51-9.54,4.97l-20.71,19.38c-2,1.87-4.1,3.44-5.94,5.41-5.75,6.15-10.98,12.31-16.05,19.02-3.8,2.98-7.55,6.57-8.97,11.12,1.5,1.67,4.05.95,5.73-.11l5.23-3.3Z"/>
      <path class="cls-1" d="M294.39,491.34l-15.11-.64c-7.49-.32-14.74.02-22.12.16l-24.43.46c-15.43.29-12.14,7.89-33.35-3.06-3.27-1.69-6.55-2.73-7.01-7.37-.41-4.13-3.87-5.86-2.3-19.03l4.62-4.77c.75-.78-.55-3.77-.39-4.97l1.6-12.38c.54-4.15,2.81-5.41,6.17-6.89,4.2-1.84,6.66-6.52,9.33-10.18,3.32-4.55,3.31-11.06.89-14.86-1.71-2.68-7.4-.44-8.06-3.88-.78-4.1,1.45-2.85,3.17-10.04.36-1.51,1.53-3.11,2.17-4.5l3.2-6.9c1.64-3.53,3.45-6.45,5.84-9.7,1.96-2.67,2.4-5.77,4.87-6.22,3.76-.68,7.02,9.23,24.96,11.74s30.1-4.53,42.2-17.17c3.79-3.96,4.15-9.51,4.16-14.92.02-7.75-4.4-14.08-10.38-18.6-7.7-5.82-10.98-5.79-16.21-13.41,4.75-6.86,10.48-12.32,16.5-18.15,1.1-1.06,2.5-3.36,3.6-4.6l7.4-8.36c2.66-3,5.73-6.01,8.81-8.66,3.49-2.99,8.64-1.64,12.57-1.53,16.02.45,23.25,8.47,34.72,18.2,4.39,3.72,8.26,7.64,10.35,12.9.7,1.77,4.11,5.09.65,6.55-3.17,1.34-12.2-5.75-18.46-3.28l-8.29,3.27c-1.95.77-4.88,2.08-6.77,3.39-9.77,6.79-15.69,18.21-16.22,30.08-.23,5.23-.32,10.48.24,15.42,1.57,13.89,30.72,16.87,43.65,10.32,7.34-3.72,12.83-12.5,16.07-12.14,1.24.14,2.52,1.83,2.74,3.13l2.36,13.89,1.93,13.7c1.09,7.74-3.4,4.77-6.31,9.17-3.01,4.55-1,9.21,1.72,12.84,2.36,3.15,4.56,5.62,8.96,5.87.9,2,2.16,4.45,2.6,6.44,1.61,7.3,3.41,13.72,6.11,20.75,2.93,7.6.06,7.69-1.07,8.81-5.06,5.05-7.14-1.81-10.86-.21-2.67,1.14-3.21,5.98-.23,10,1.21,1.64,2.42,5.22,1.06,6.67-3.96,4.18-9.64,3.14-14.68,4.7-9.13,2.83-16.02,7.95-26.56,8.29-4.71,2.85-9.81,2.49-15.17,2.73l-10.57.47c-13.28.59-9.71,6.94-20.68,6.48ZM305.49,423.63c1.79-.44,4.26-3.02,4.38-4.57.77-9.35-.08-18.2-2.12-27.36-.34-1.54-2-3.14-3.08-3.72-.93-.5-4.16.28-4.16,1.37l-.09,30.16c0,1.85,2.84,4.67,5.07,4.12ZM360.71,404.02c-.17-6.61-3.34-12.84-9.36-15.9-1.41-.72-4.73-.51-6.16.25-2.3,1.22-1.03,4.27-.23,6.03,3.51,7.8,4.18,15.7,5.03,24.18.2,1.96,3.83,4.87,5.96,4.91,8.13.15,4.95-12.13,4.76-19.47ZM327.28,418.95c1.42,1.35,3.84,1.49,5.27.7,5.03-2.78.52-15.35-.82-20.29-1.13-4.15-3.83-9.64-7.32-10.84-1.24-.43-4.19.39-4.72,1.51-1.12,2.35.05,4.81,1.03,6.93,1.29,2.79,1.01,6.61,1.89,9.5s1.88,5.52,2.55,8.62c.28,1.3.87,2.69,2.11,3.87ZM277.53,417.52l1.37-5.53c.5-2.01,2.09-4.33,2.64-6.28l2.56-9.08c.45-1.59-.77-4.14-2.24-4.89-5-2.55-8.28,6.57-9.3,8.96l-4.04,9.42c-1.13,2.63-.79,7.47-.11,10.36.5,2.12,4.14,2.54,5.57,1.89,1.88-.84,2.97-2.56,3.54-4.85ZM250.3,419.6c1.32-2.87,2.49-5.51,3.51-8.15l2.96-7.67c.92-2.37,2.6-6.23.75-8.34-2.51-2.87-6.12-.22-7.7,2.22-1.78,2.76-2.86,5.27-4.06,8.23l-2.77,6.84c-1.2,2.95-3.1,5.91-2.19,9.21.73,2.66,3.5,3.91,5.33,3.61,3.48-.59,2.96-3.3,4.17-5.95ZM298.54,442.03l8.1,1.22,32.31.22c4,.03,16.65,4.6,21.15-3.15.75-1.29-1.45-4.67-2.91-5.45-2.92-1.56-6.69-1.66-9.93-2.61-6.06-1.79-11.85-1.93-18.06-1.16l-10.52,1.31-31.29.74-32.44.54c-2.94.05-5.68,1.21-8.21,2.4s-4.11,4.11-2.34,6.3c1.25.53,4.02-.35,5.47-.35l48.69-.02Z"/>
      <path class="cls-1" d="M377.88,526.29c-4.78.8-9.65,1.94-14.13,1.33-5.13-.69-13.81-2.42-18.08-4.37l-32.9-14.97-5.12-2.44c-1.86-.89-3.79-1.66-3.7-3.73.11-2.48,2.77-2.75,4.8-3.27,5.02-1.29,9.55-2.24,14.78-2.12,7.35.17,14.68-.87,21.63,1.23l5.21,1.57c5.76,1.74,11.1,3.29,16.56,6.07,2.33,1.19,4.59,3.43,6.8,5.07,4.99,3.71,7.27,9.32,4.15,15.62Z"/>
      <path class="cls-1" d="M229.18,560.8l-5.23,3.3c-1.68,1.06-4.23,1.78-5.73.11,1.43-4.55,5.17-8.14,8.97-11.12,5.06-6.71,10.3-12.87,16.05-19.02,1.84-1.97,3.94-3.53,5.94-5.41l20.71-19.38c2.63-2.46,5.53-6.19,9.54-4.97.9.27,2.36,1.3,2.84,1.9s.35,2.71-.13,3.37l-6.78,9.34c-2.73,3.77-5.59,7.02-8.16,10.91-3.79,5.74-8.86,10.35-14,14.94-4.37,3.9-8.83,6.92-13.88,9.94l-10.16,6.08Z"/>
      <path class="cls-1" d="M368.15,347.34c-4.19,3.34-8.06,7.25-11.99,11.2-2.4,2.41-6.2,5.42-9.59,3.17-2.47-1.64-.7-5.98-.66-8.59.15-9.74.49-19.28-.32-29-.16-1.89-4.89-4.67-1.63-7.28,1.82-1.46,6.46-1.2,8.77.16,4.07,2.39,8.48,3.92,13.05,2.36,4.19,3.89,4.37,9.19,5.55,14.28,1.25,5.37,1.54,9.93-3.18,13.7Z"/>
      <path class="cls-1" d="M251,355.47c4.17,5.85-1.91,7.36,2.49,13.73.54.78.42,3.35-.44,3.54-5.59,1.24-12.52-2.57-17.61-5.16-3.72-1.89-9.17-6.17-7.06-11.28,2.21-5.38,6.68-10.04,10.35-14.61,12.58-15.66,23.98-11.45,18.14-7.08-6.71,5.03-1,9.7-5.64,15.27-1.12,1.34-1.23,4.18-.22,5.59Z"/>
      <path class="cls-1" d="M266.23,369.54c-1.58,1-4.43-2.88.77-12.97,1.37-2.65.52-6.58,1.34-9.36,1.26-4.29,2.44-8.91,2.75-13.25.05-.71,1.1-2.15,1.73-2.29,3.19-.74,10.4,7.28,12.42,10.67s1.16,8.33-.76,11.21c-4.31,6.47-9.93,10.73-16.28,14.75l-1.97,1.25Z"/>
      <path class="cls-1" d="M329.34,362.74c-2.34-.81-6.8-3.43-7.34-6.19-1.1-5.67-.91-11.97.83-17.29l1.99-6.07c.49-1.49,3.67-5.24,5.25-4.94.62.12,1.36,1.89,1.27,2.68-.64,5.69,1.27,11.52,1.83,17.45l.93,9.87c.25,2.62-1.78,5.52-4.77,4.49Z"/>
      <path class="cls-1" d="M298.54,442.03l-48.69.02c-1.44,0-4.22.88-5.47.35-1.77-2.19-.13-5.14,2.34-6.3s5.27-2.35,8.21-2.4l32.44-.54,31.29-.74,10.52-1.31c6.21-.78,12-.63,18.06,1.16,3.24.96,7.01,1.06,9.93,2.61,1.46.78,3.66,4.16,2.91,5.45-4.5,7.75-17.14,3.18-21.15,3.15l-32.31-.22-8.1-1.22Z"/>
      <path class="cls-1" d="M360.71,404.02c.19,7.34,3.36,19.63-4.76,19.47-2.13-.04-5.76-2.95-5.96-4.91-.85-8.48-1.52-16.38-5.03-24.18-.79-1.76-2.06-4.81.23-6.03,1.43-.76,4.74-.97,6.16-.25,6.02,3.07,9.19,9.29,9.36,15.9Z"/>
      <path class="cls-1" d="M305.49,423.63c-2.22.55-5.07-2.27-5.07-4.12l.09-30.16c0-1.09,3.23-1.87,4.16-1.37,1.07.58,2.74,2.18,3.08,3.72,2.04,9.16,2.89,18,2.12,27.36-.13,1.56-2.59,4.13-4.38,4.57Z"/>
      <path class="cls-1" d="M327.28,418.95c-1.24-1.17-1.83-2.57-2.11-3.87-.67-3.1-1.64-5.65-2.55-8.62s-.6-6.71-1.89-9.5c-.98-2.12-2.15-4.58-1.03-6.93.53-1.12,3.48-1.94,4.72-1.51,3.49,1.2,6.19,6.69,7.32,10.84,1.34,4.93,5.85,17.5.82,20.29-1.43.79-3.85.65-5.27-.7Z"/>
      <path class="cls-1" d="M277.53,417.52c-.57,2.3-1.66,4.01-3.54,4.85-1.43.64-5.07.23-5.57-1.89-.69-2.89-1.02-7.73.11-10.36l4.04-9.42c1.02-2.39,4.3-11.5,9.3-8.96,1.47.75,2.69,3.29,2.24,4.89l-2.56,9.08c-.55,1.95-2.15,4.27-2.64,6.28l-1.37,5.53Z"/>
      <path class="cls-1" d="M250.3,419.6c-1.21,2.65-.69,5.36-4.17,5.95-1.83.31-4.59-.94-5.33-3.61-.91-3.3.99-6.26,2.19-9.21l2.77-6.84c1.2-2.97,2.28-5.48,4.06-8.23,1.58-2.44,5.19-5.09,7.7-2.22,1.84,2.1.16,5.96-.75,8.34l-2.96,7.67c-1.02,2.64-2.19,5.28-3.51,8.15Z"/>
    </g>
  </g>
</svg>